<svg xmlns="http://www.w3.org/2000/svg" viewBox="0 0 155 52"><path fill="#474747" fill-opacity=".5" d="M4.5 3.2h146v45.7H4.5z"/><path d="M51.8 39.7l-1 2-2.2.3 1.6 1.6-.4 2.2 2-1 2 1-.4-2.2L55 42l-2.2-.3-1-2zm8-2l-1 2-2.2.3 1.6 1.6-.4 2.2 2-1 2 1-.4-2.2L63 40l-2.2-.3-1-2zm-16.7 0l-1 2-2.2.3 1.6 1.6-.4 2.2 2-1 2 1-.4-2.2 1.6-1.6-2.2-.3-1-2zm22.7-6l-1 2-2.2.3 1.6 1.6-.4 2.2 2-1 2 1-.4-2.2L69 34l-2.2-.3-1-2zm-28 0l-1 2-2.2.3 1.6 1.6-.4 2.2 2-1 2 1-.4-2.2L41 34l-2.2-.3-1-2zM84.2 30c-.8 0-1.5.2-1.9.7s-.7 1.2-.7 2c0 .9.2 1.6.7 2.1.4.5 1.1.7 1.9.7.9 0 1.5-.2 1.9-.7.4-.5.7-1.2.7-2.1 0-.9-.2-1.6-.7-2.1-.4-.4-1-.6-1.9-.6zm-4.9 0c-.5 0-1 .1-1.4.3s-.7.6-.9 1c-.2.4-.3.9-.3 1.5 0 .9.2 1.6.6 2 .4.5 1 .7 1.9.7.6 0 1.1-.1 1.5-.3V34c-.2.1-.4.2-.7.2s-.5.1-.7.1c-.8 0-1.2-.5-1.2-1.6 0-.5.1-.9.3-1.2.2-.3.5-.4.8-.4.2 0 .4 0 .6.1s.4.1.6.2l.4-1.1c-.3-.2-.9-.3-1.5-.3zm42.7.1h-4v1.2h1.3v4.2h1.4v-4.2h1.3v-1.2zm-8 0h-1.9v5.4h1.3V33c0-.3 0-.8-.1-1.4l2 3.8h1.9V30h-1.3v2.4c0 .3 0 .8.1 1.3l-2-3.6zm-4.2-.1h-1.9l-1.7 5.4h1.6l.3-1h1.7l.3 1h1.6l-1.9-5.4zm-4.3.1H104v5.4h1.5v-5.4zm-4.3 0h-1.4v5.4h3.5v-1.2h-2.1v-4.2zm-4.3 0H95v5.4h1.4v-1.8h.4c.6 0 1.1-.2 1.5-.5.4-.3.5-.8.5-1.4 0-.5-.2-1-.5-1.3-.3-.3-.8-.4-1.4-.4zm-7.2 0h-1.9v5.4H89v-2.3c0-.4 0-.9-.1-1.5l1.1 3.9h1.4l1.1-3.9v3.9h1.3v-5.4h-1.9L90.8 34l-1.1-3.9zM51.6 16.9c-.9.8-1.9 1.4-2.8 1.7-.9.3-2.3.6-4.3.7.2 4.5.8 7.7 1.7 9.5.9 1.8 2.7 3.9 5.4 6.2 3.3-2.5 5.3-4.6 6.1-6.2s1.2-4.8 1.5-9.5c-1.9-.2-3.2-.5-4-.7-1-.3-2.1-.8-3.6-1.7zm32.6 14.3c.4 0 .6.1.8.4.2.3.3.7.3 1.2s-.1.9-.3 1.2c-.2.3-.4.4-.8.4-.7 0-1.1-.5-1.1-1.6s.4-1.6 1.1-1.6zm24.6-.3c0 .1.1.4.2.7.1.3.1.6.2.8l.2.9h-1.1c.2-.8.4-1.4.4-1.7.1-.3.1-.5.1-.7zm-12 .3c.4 0 .6.2.6.5 0 .2-.1.4-.2.5-.1.1-.3.2-.5.2h-.3v-1.2h.4zM68.4 23l-1 2-2.2.3 1.6 1.6-.3 2.1 2-1 2 1-.5-2.2 1.6-1.6-2.2-.2-1-2zm-33.3 0l-1 2-2.2.3 1.6 1.6-.3 2.1 2-1 2 1-.4-2.2 1.6-1.6-2.3-.2-1-2zm47.7-7.8c-2 0-3.6.5-4.7 1.6s-1.7 2.6-1.7 4.6c0 2 .5 3.6 1.5 4.7s2.5 1.6 4.3 1.6c1.7 0 3.3-.2 4.7-.7v-6.6h-5.2V23h2.2v1.9c-.4.1-.9.1-1.3.1-.9 0-1.6-.3-2-.9-.5-.6-.7-1.5-.7-2.6 0-1.2.3-2.1.8-2.7.5-.6 1.3-.9 2.2-.9 1 0 2 .2 2.9.7l1-2.6c-.5-.2-1.1-.4-1.8-.6-.7-.1-1.4-.2-2.2-.2zm33.8.2h-4v12.2h3.3v-4.4h.8l2.6 4.4h3.7l-3.5-5.3c1.4-.8 2.1-1.9 2.1-3.3 0-2.4-1.7-3.6-5-3.6zm-22.9 0h-4.2v12.2h3.9c2 0 3.6-.6 4.7-1.7s1.7-2.7 1.7-4.7c0-1.9-.5-3.3-1.6-4.3s-2.6-1.5-4.5-1.5zm12.4 0h-4.2v12.2h3.3v-4h.9c1.5 0 2.6-.4 3.4-1.1.8-.7 1.2-1.8 1.2-3.2 0-1.2-.4-2.2-1.2-2.9-.7-.7-1.8-1-3.4-1zm-12.4 2.7c.9 0 1.6.3 2 .8.4.5.7 1.4.7 2.5 0 1.2-.2 2.1-.7 2.7-.5.6-1.2.9-2.2.9h-.7v-6.8h.9zm-55.9-3.2l-1 2-2.2.3 1.6 1.6-.4 2.2 2-1 2 1-.4-2.2 1.6-1.6-2.2-.3-1-2zm68.3 3.2c.9 0 1.4.4 1.4 1.2 0 .5-.1.9-.4 1.2s-.7.4-1.2.4h-.6v-2.8h.8zm10.5-.2c1.1 0 1.7.4 1.7 1.3 0 1-.6 1.5-1.7 1.5h-.6v-2.8h.6zm-50.8-3.6l-1 2-2.2.3 1.6 1.6-.4 2.2 2-1 2 1-.4-2.2 1.6-1.6-2.2-.3-1-2zm-6-5.4l-1 2-2.2.3 1.6 1.6-.4 2.2 2-1 2 1-.4-2.2 1.6-1.6-2.2-.3-1-2zm-16.7 0l-1 2-2.2.3 1.6 1.6-.3 2.2 2-1 2 1-.4-2.2 1.6-1.6-2.2-.3-1.1-2zm8-2.7l-1 2-2.2.3 1.6 1.6-.4 2.2 2-1 2 1-.4-2.2 1.6-1.6-2.2-.3-1-2z" fill="#fff"/></svg>