<svg xmlns="http://www.w3.org/2000/svg" viewBox="0 0 155 52"><path fill="#474747" fill-opacity=".5" d="M5.3 3.3h146V49H5.3z"/><path d="M51.4 26.6h3.1c0-.1.1-.3.1-.4V25h-3.2v1.6zm2.4 1.6h-1.6v4.2c.6-1 1.2-2 1.6-3.2v-1zm-9.5 0h-1.6v11.2c.5-.2 1.1-.3 1.6-.5V28.2zM42 25.1h3.2v1.6H42zm4.7 0v2.4c0 .4-.4.8-.8.8v9.9c1.8-.9 3.4-2.2 4.7-3.6v-6.3c-.4 0-.8-.4-.8-.8v-2.4h-3.1zm-19.6 0v2.4c0 .4-.4.8-.8.8v6.3c1.3 1.5 2.9 2.7 4.7 3.6v-9.9c-.4 0-.8-.4-.8-.8v-2.4h-3.1zm9.4 0v2.4c0 .4-.4.8-.8.8v4.9c.7-.6 1.7-1 2.7-1s2 .4 2.7 1v-4.9c-.4 0-.8-.4-.8-.8v-2.4h-3.8zm-.8 14.6c.9.2 1.8.2 2.7.2s1.9-.1 2.7-.2v-3.3c0-1.5-1.2-2.7-2.7-2.7s-2.7 1.2-2.7 2.7v3.3zM22.5 20.3h31.9l-16-7.9zm9.3 4.8H35v1.6h-3.2zm-9.7-1.6h32.6c0-.5 0-1.1-.1-1.6H22.2c0 .5-.1 1-.1 1.6zm12 4.7h-1.6v10.7c.5.2 1 .4 1.6.5V28.2zm-11 0v1.1c.4 1.1.9 2.2 1.6 3.2v-4.2l-1.6-.1zm-.8-1.9c0 .1 0 .3.1.4h3.1v-1.6h-3.1v1.2h-.1zm36.2 9.4v-1.1h.3c.3 0 .6 0 .8-.1s.5-.1.7-.3c.2-.1.4-.3.5-.6s.2-.6.2-1V19.8c0-.4-.1-.7-.2-1s-.3-.5-.5-.6-.4-.2-.7-.3c-.3 0-.5-.1-.8-.1h-.3v-1.1h7.7v1.1h-.4c-.3 0-.6 0-.8.1-.3 0-.5.1-.7.3-.2.1-.4.3-.5.6s-.2.6-.2 1v12.9c0 .4.1.7.2 1 .1.3.3.5.5.6s.4.2.7.3c.3 0 .5.1.8.1h.4v1.1l-7.7-.1zm9.7 0v-1.1h.3c.3 0 .6 0 .8-.1.3 0 .5-.1.7-.3.2-.1.4-.3.5-.6s.2-.6.2-1V19.8c0-.4-.1-.7-.2-1s-.3-.5-.5-.6-.4-.2-.7-.3c-.3 0-.5-.1-.8-.1h-.3v-1.1h7.7v1.1h-.4c-.3 0-.6 0-.8.1-.3 0-.5.1-.7.3-.2.1-.4.3-.5.5s-.2.5-.2.9v14.7h5.2c.4 0 .7-.1 1-.2.3-.1.5-.3.7-.5s.3-.5.4-.8.2-.6.2-.9l.3-2h1.4l-.2 5.7c.1.1-14.1.1-14.1.1zM90 18v7.7h6.4V27H90v5.6c0 .4.1.7.2 1s.3.5.5.6.4.2.7.3c.3 0 .5.1.8.1h.8v1.1h-8.3v-1.1h.3c.3 0 .6 0 .8-.1s.5-.1.7-.2c.2-.1.4-.3.5-.5s.2-.5.2-.9V19.6c0-.4-.1-.7-.2-.9-.1-.2-.3-.4-.5-.5s-.4-.2-.7-.3c-.3 0-.5-.1-.8-.1h-.3v-1.1h13.4l.1 4.6h-1.4l-.1-1.1c0-.3-.1-.6-.2-.8-.1-.3-.3-.5-.5-.7s-.5-.4-.7-.5-.6-.2-1-.2H90zm19.5-1.6c.9 0 1.7.1 2.4.2.7.2 1.2.4 1.7.6.5.3.8.6 1 .9.2.4.3.8.3 1.2 0 .3-.1.5-.2.8-.1.2-.3.4-.5.6s-.5.3-.7.4c-.3.1-.6.1-.9.1 0-.4-.1-.8-.2-1.2-.1-.4-.3-.8-.5-1.1-.3-.3-.6-.6-1-.8-.4-.2-.9-.3-1.4-.3-1 0-1.9.2-2.5.5-.7.4-1.3.9-1.7 1.6-.5.7-.8 1.6-1 2.6s-.3 2.2-.3 3.5c0 1.2.1 2.3.3 3.3.2 1 .5 1.8 1 2.5s1 1.3 1.7 1.6c.7.4 1.5.6 2.5.6.6 0 1.2-.1 1.7-.2s.9-.3 1.3-.5.7-.5 1-.7l.8-.8c.2.1.3.2.4.4s.1.4.1.6c0 .3-.1.7-.4 1-.2.4-.6.7-1 1-.5.3-1.1.5-1.8.7s-1.6.3-2.5.3c-1.3 0-2.5-.2-3.5-.7s-1.8-1.1-2.5-2-1.2-1.9-1.5-3.1c-.4-1.2-.5-2.5-.5-4s.2-2.7.5-4c.4-1.2.9-2.2 1.6-3.1s1.6-1.5 2.7-2c.9-.2 2.2-.5 3.6-.5zm11.6 12.9l-1 2.8c-.1.2-.1.4-.2.6 0 .2-.1.4-.1.5 0 .5.1.8.5 1 .3.2.7.3 1.3.3h.6v1.1h-6.5v-1.1h.5c.3 0 .5 0 .7-.1s.4-.2.5-.3c.2-.2.3-.4.4-.6.1-.3.3-.6.5-1l5.9-15.8h2.1l6 16.5c.1.3.2.5.3.7s.2.3.4.5c.2.1.3.2.5.2s.4.1.7.1h.4v1.1h-7.3v-1.1h.6c1.1 0 1.6-.4 1.6-1.3 0-.2 0-.3-.1-.5 0-.2-.1-.3-.2-.5l-1.1-3-7-.1zm4.9-5.9c-.3-.8-.5-1.5-.8-2.2-.2-.7-.4-1.4-.6-2-.1.3-.1.6-.2.9l-.3.9c-.1.3-.2.6-.3 1-.1.4-.3.7-.4 1.1l-1.8 4.9h6l-1.6-4.6z" fill="#fff"/></svg>