<svg version="1.1" id="Слой_1" xmlns="http://www.w3.org/2000/svg" x="0" y="0" viewBox="0 0 155 52" xml:space="preserve"><style>.st0{fill:#fff}</style><g id="Logo_hoover_4-Copy-2"><g id="Group-23_8_" transform="translate(0 7)"><g id="company_visa_8_" transform="translate(63.824 4.559)"><path class="st0" d="M.3 1.8C.3.9 1 .1 2 .1c.9 0 1.7.7 1.7 1.7 0 .9-.7 1.7-1.7 1.7S.3 2.7.3 1.8zm1.6 1.3c.7 0 1.3-.6 1.3-1.3S2.6.5 1.9.5.6 1.1.6 1.8c.1.7.6 1.3 1.3 1.3zm-.2-.5h-.3V1.1H2c.1 0 .3 0 .4.1.1.1.2.2.2.4s-.1.3-.3.4l.3.6h-.4L2 2h-.3v.6zm0-.9h.4c.1 0 .1-.1.1-.2s0-.1-.1-.1h-.4v.3z" transform="translate(87.094 25.592)" id="registered_8_"/><path id="a_8_" class="st0" d="M80.2 0l5.5 28.3h-6.3l-.8-4.2h-8.8l-1.4 4.2h-7.2L71.5 2.1S72.1 0 74.7 0h5.5zm-4.7 7.7l-3.6 10.6h5.7L75.5 7.7z"/><path id="s_8_" class="st0" d="M61.6 7.1l1-5.9S59.6 0 56.5 0C53.1 0 45 1.5 45 9c0 7.1 9.4 7.1 9.4 10.9 0 3.7-8.5 3-11.3.7l-1 6.1s3 1.5 7.7 1.5 11.7-2.5 11.7-9.4c0-7.1-9.5-7.8-9.5-10.9.1-2.9 6.7-2.5 9.6-.8"/><path id="i_8_" class="st0" d="M38 28.3h-6.7L35.5 0h6.7L38 28.3"/><path id="v_8_" class="st0" d="M16.6 15.3l.8 4.2L23.9 0h7.4l-11 28.3h-7.2l-6-24.6C4.5 2 2 1.1.8.7c1.6.5 5.6 1.9 9.4 5.3 4.6 4 6.2 8.9 6.4 9.3zM.2.5H0h.2zm.5.2C.6.7.5.7.5.6.5.6.6.6.7.7zM0 .5z"/><path id="shape_8_" class="st0" d="M16.3 14.8L14 2.5S13.7 0 10.8 0H.1L0 .5s5.1 1.1 10.1 5.3c4.7 4 6.2 9 6.2 9"/></g><g id="company_mastercard_8_"><path id="Shape_17_" class="st0" d="M63 26.6c.4 0 .7.3.7.7 0 .4-.3.7-.7.7s-.7-.3-.7-.7.3-.7.7-.7v-.1c-.4 0-.8.3-.8.8s.4.8.8.8.8-.3.8-.8-.4-.8-.8-.8v.1z"/><path id="Shape_16_" class="st0" d="M62.8 26.9h.2c.1 0 .2 0 .2.1s-.1.2-.2.2h-.2v.1h.2l.2.4h.2l-.3-.4c.1 0 .2-.1.2-.3 0-.2-.1-.3-.3-.3h-.4v.9h.1l.1-.7z"/><path id="Combined-Shape_8_" class="st0" d="M43.8 0C54.4 0 63 8.5 63 19s-8.6 18.9-19.1 18.9c-4.6 0-8.9-1.6-12.2-4.3-3.3 2.7-7.6 4.3-12.2 4.3C8.8 37.9.3 29.4.3 19S8.8 0 19.4 0c4.6 0 8.9 1.6 12.2 4.3C34.9 1.6 39.2 0 43.8 0zM15.9 16.5c-.5 0-1.1 0-2.1.2h-.2c.1 0 1.1-.2 0 0l-.3 1.4c.4 0 1.6-.2 2.2-.2s1.3-.1 1.1.9c-.5 0-3.7-.5-4.2 2.3-.2 1.3 1 2 1.9 2s1.2-.2 1.5-.4l.2.4h1.7l.7-3.5c.2-.9.5-3.1-2.5-3.1zm30.1 0c-.5 0-1.1 0-2.1.2h-.1c.2 0 .8-.1 0 0h-.1.1l-.3 1.4c.4 0 1.6-.2 2.2-.2h.2c.6 0 1.1 0 .9.9-.5 0-3.7-.5-4.2 2.3-.2 1.3 1 2 1.9 2s1.2-.2 1.5-.4l.2.4h1.7l.7-3.5c.1-.9.4-3.1-2.6-3.1zm-19.4-1.6h-1.8l-1.2 6.2c-.3 1.8 1 2 1.4 2s.9-.1 1.3-.3l.1-1.3c-1 .2-1.1-.3-1-.8L26 18h.9l.3-1.4h-1l.4-1.7zm3.5 1.7c-2.9 0-3.2 2.8-3.3 3.2-.1.4-.1 3.3 3 3.3.8 0 1.9-.1 2.3-.3l.3-1.3c-.3.1-1.3.2-2 .2h-.3c-.7 0-1.6-.1-1.4-1.4h3.9c.2-1.2.6-3.7-2.5-3.7zm-8.3-.1c-.6 0-2.4.1-2.7 1.5-.3 1.2.2 1.7.6 1.9.7.3 1.1.6 1.4.7.5.2.4 1-.2 1-.3 0-1.5.1-2.4-.2l-.3 1.3c.8.2 1.5.2 2.1.2h.1c.6 0 2.5 0 2.7-1.8.1-.9-.3-1.4-.6-1.6-.3-.2-.9-.5-1.3-.7s-.6-.8 0-1c.4 0 1.3 0 1.8.1-.1 0-.4-.1 0 0l.4-1.3c-.7-.1-1.4-.1-1.6-.1zM7.6 15.2H4.8L3.3 23H5l1.1-5.7.5 5.7h1.7l2.5-5.5L9.7 23h1.9l1.5-7.8h-2.9L8 20l-.4-4.8zm27.7 1.4h-1.5L32.6 23h1.8l.5-2.9c.5-1.9 1.4-1.8 1.8-1.8l.5-1.7c-.9 0-1.4.3-1.7.6l-.2-.6zm5.8-1.7c-1.2 0-3.3.8-4 3.3-.9 3.3 1.1 4.9 2.9 4.9 1 0 1.6-.1 2.2-.4l-.5-1.6c-1.8.6-3.1-.3-2.8-2.2.3-1.6 1.6-2.1 2.2-2.1s.9 0 1.4.3l1.2-1.2c-.6-.5-1.1-1-2.6-1zm18.9-.1h-1.9l-.5 2.5c-.3-.2-.5-.8-1.4-.8-1 0-2.5-.2-3.4 2.8-.6 2 .6 3.8 1.9 3.8.6 0 1.2-.3 1.6-.5l.2.5h1.9l1.6-8.3zm-8.7 1.8h-1.5l-1.2 6.5h1.8l.6-3c.5-1.9 1.4-1.8 1.8-1.8l.5-1.7c-.9 0-1.4.3-1.7.6l-.3-.6zm-6.4 3.7c.6-.4 1.2-.2 1.5-.2l-.1.7c-.1.6-1 1-1.5.7-.6-.1-.5-.8.1-1.2zm-30.2 0c.6-.4 1.2-.2 1.5-.2l-.1.7c-.1.6-1 1-1.5.7-.6-.1-.4-.8.1-1.2zm40-.6c.4-1.4 1.6-2 2.2-1.3.2.3.3 1 .1 1.6-.3.8-.7 1.3-1.4 1.3-.6 0-1.2-.7-.9-1.6zm-24.5-1.9c.7 0 .9.5.8 1.2h-2.2v-.2c.2-.7.6-1 1.2-1h.2zm-1.4 1v.1-.1zm.1-.1c0-.1 0-.1 0 0zm0-.1zm-5.9-.5zm0-.1c0 .1 0 .1 0 0zm-.1 0zm-9.4-1.2zm.3-.1h-.2c.2 0 .8-.1.2 0zm.1 0zm.1 0c.1 0 .1 0 0 0zm30.2 0zm-30.2 0zm30.2 0z"/></g></g></g></svg>