<svg width="150" height="175" viewBox="0 0 150 175" fill="none" xmlns="http://www.w3.org/2000/svg">
<g clip-path="url(#clip0)">
<path d="M132.6 111.7C128 109.5 123 107.5 117.6 105.7H117.5C114.6 104.8 112.1 104 109.8 103.4C106.8 102.6 103.8 102 100.7 101.5C97.3 98 95.6 94.1 94.9 90.6C102.2 84.9 107.7 76.4 110.7 66.3C112.1 66.2 113.4 65.6 114.6 64.7C117.2 62.6 118.9 58.6 119.3 54.2C119.9 47.3 117.2 41.7 113 40.6C113 40.1 113 39.6 112.9 39.2C112.8 37.6 112.7 36.1 112.6 34.6C110.1 11.6 97.4 0 74.8 0C52.2 0 39.6 11.5 37.1 34.5C37 34.7 37 34.9 37 35.2C36.8 36.9 36.7 38.7 36.6 40.5C32.3 41.6 29.7 47.3 30.3 54.1C30.7 58.6 32.5 62.5 35 64.6C36.2 65.6 37.5 66.2 38.9 66.2C41.9 76.3 47.5 84.8 54.8 90.5C54 94 52.4 97.9 49 101.4C45.9 101.9 42.9 102.6 39.9 103.3C37.5 103.9 35.1 104.6 32.2 105.6H32.1C26.7 107.3 21.6 109.4 17.1 111.6C8.4 115.9 0 121 0 134V153.2C0 154 0.3 154.7 0.9 155.2C1.6 155.8 15.4 167.4 46.3 172.2C46.6 172.3 46.8 172.3 47.1 172.3C52.4 173.1 58.1 173.7 64.4 174.1C66 174.2 67.6 174.2 69.3 174.3H69.6C71.3 174.3 73.1 174.4 74.9 174.4C76.7 174.4 78.4 174.4 80.2 174.3H80.5C82.2 174.3 83.8 174.2 85.4 174.1C91.7 173.8 97.4 173.1 102.7 172.3C103 172.3 103.2 172.3 103.5 172.2C134.4 167.3 148.2 155.7 148.9 155.2C149.5 154.7 149.8 154 149.8 153.2V134C149.6 121 141.2 115.9 132.6 111.7ZM101 106.9C102.6 107.2 104.3 107.5 105.9 107.9C105.9 108 105.9 108 105.9 108.1C105.8 108.5 105.7 108.8 105.6 109.2C105.5 109.7 105.3 110.2 105.1 110.7C105 111.1 104.9 111.4 104.7 111.7C104.5 112.2 104.4 112.6 104.2 113.1C104.1 113.4 103.9 113.8 103.8 114.1C103.6 114.5 103.5 114.9 103.3 115.3C103.2 115.6 103 115.9 102.9 116.2C102.7 116.6 102.5 116.9 102.4 117.3C102.2 117.6 102.1 117.9 101.9 118.2C101.7 118.5 101.5 118.9 101.3 119.2C101.1 119.5 101 119.7 100.8 120C100.6 120.3 100.4 120.6 100.2 120.9C100 121.1 99.9 121.4 99.7 121.6C99.5 121.9 99.3 122.1 99.1 122.4C98.9 122.6 98.8 122.8 98.6 123.1C98.4 123.4 98.2 123.6 98 123.8C97.8 124 97.7 124.2 97.5 124.4C97.3 124.6 97.1 124.8 96.9 125C96.7 125.2 96.6 125.4 96.4 125.5C96.2 125.7 96 125.9 95.8 126.1C95.6 126.3 95.5 126.4 95.3 126.6C95.1 126.8 94.9 126.9 94.8 127.1C94.7 127.2 94.5 127.4 94.4 127.5C94.2 127.7 94.1 127.8 93.9 127.9C93.8 128 93.6 128.1 93.5 128.2C93.3 128.3 93.2 128.5 93 128.6C92.9 128.7 92.8 128.8 92.6 128.9C92.4 129 92.3 129.1 92.1 129.3C92 129.4 91.9 129.4 91.8 129.5C91.6 129.7 91.3 129.8 91.1 129.9L79.9 120.1C86.9 117.8 98 113.2 101 106.9ZM74.8 5.3C94 5.3 104.3 14 107 32.6C88.9 34.3 76.8 22.3 76.7 22.2C76.2 21.7 75.6 21.4 75 21.4C60.2 20.5 49.3 25.4 43.2 29.3C46.6 13 56.8 5.3 74.8 5.3ZM43.4 62.7C43.2 61.9 42.7 61.3 42 61C41.6 60.8 41.3 60.8 40.9 60.8C40.5 60.8 40.1 60.9 39.8 61.1C39.7 61.1 39.6 61.2 39.5 61.2C39.1 61.3 38.7 61 38.5 60.7C37.4 59.8 36 57.4 35.7 53.8C35.3 49 37.1 45.8 38.2 45.7C38.2 45.7 38.3 45.7 38.5 45.8C39.3 46 40.2 45.9 40.9 45.4C41.6 44.9 42 44.1 42 43.3C42 42.6 42 41.9 42 41C42 39.5 42.1 38.1 42.2 36.7C44.8 34.5 56.1 26.1 73.7 26.8C76.6 29.5 87.4 38.3 103.3 38.3C104.7 38.3 106.1 38.2 107.6 38.1C107.6 38.6 107.7 39 107.7 39.5C107.8 40.7 107.8 42 107.8 43.3C107.8 44.1 108.2 44.9 108.9 45.4C109.6 45.9 110.5 46 111.3 45.8C111.5 45.7 111.6 45.7 111.6 45.7C112.7 45.8 114.6 49 114.1 53.8C113.8 57.5 112.4 59.8 111.3 60.7C111 60.9 110.6 61.2 110.3 61.2C110.2 61.2 110.1 61.2 110 61.1C109.3 60.8 108.5 60.7 107.7 61.1C107 61.4 106.5 62.1 106.3 62.8C103.7 73.2 98.1 81.9 90.8 87.3C81.1 94.3 68.7 94.3 59.1 87.3C51.6 81.8 46.1 73.1 43.4 62.7ZM59.5 93.7C64.3 96.4 69.5 97.8 74.8 97.8C80.1 97.8 85.3 96.4 90.1 93.7C91.1 97.3 93 101.1 96.3 104.7C94.7 108.7 83.5 113.7 74.8 116.2C66.1 113.7 54.9 108.6 53.3 104.6C56.6 101.1 58.4 97.3 59.5 93.7ZM48.6 106.9C51.6 113.2 62.7 117.8 69.5 120.1L58.3 129.9C58.1 129.8 57.9 129.6 57.6 129.5C57.5 129.5 57.5 129.4 57.4 129.4C57.2 129.3 57 129.1 56.8 129C56.7 128.9 56.6 128.9 56.5 128.8C56.3 128.7 56.1 128.5 55.9 128.4C55.8 128.3 55.7 128.2 55.6 128.1C55.4 127.9 55.2 127.8 55 127.6C54.9 127.5 54.7 127.4 54.6 127.3C54.4 127.1 54.2 126.9 54 126.8C53.9 126.7 53.7 126.5 53.6 126.4C53.4 126.2 53.2 126 53 125.8C52.9 125.6 52.7 125.5 52.6 125.3C52.4 125.1 52.2 124.8 52 124.6C51.8 124.4 51.7 124.2 51.5 124.1C51.3 123.9 51.1 123.6 50.9 123.3C50.7 123.1 50.6 122.9 50.4 122.7C50.2 122.4 50 122.1 49.8 121.8C49.6 121.6 49.5 121.4 49.3 121.1C49.1 120.8 48.9 120.5 48.7 120.2C48.5 120 48.4 119.7 48.2 119.4C48 119.1 47.8 118.7 47.6 118.4C47.5 118.1 47.3 117.9 47.2 117.6C47 117.2 46.8 116.8 46.6 116.5C46.5 116.2 46.3 115.9 46.2 115.6C46 115.2 45.8 114.8 45.7 114.3C45.6 114 45.4 113.7 45.3 113.4C45.1 112.9 45 112.5 44.8 112C44.7 111.7 44.6 111.4 44.5 111C44.3 110.5 44.2 110 44 109.4C43.9 109.1 43.8 108.7 43.7 108.4C43.7 108.3 43.7 108.3 43.6 108.2C45.4 107.5 47 107.2 48.6 106.9ZM144.3 151.8C141.1 154.2 129.3 161.8 107.2 166.1L100.8 167.2C95.9 167.9 90.7 168.5 84.9 168.8C83.3 168.9 81.8 168.9 79.9 169C79.1 169 78.2 169 77.4 169V146.7C76.9 148.7 75.4 150.4 72.7 150.4C72.5 150.4 72.3 150.4 72.1 150.4V169C71.3 169 70.4 169 69.6 169H69.3C67.7 169 66.1 168.9 64.5 168.8C58.8 168.5 53.5 167.9 48.6 167.2L42.2 166.1C20.2 161.8 8.3 154.2 5.1 151.8V134C5.1 125 9.8 121 19.2 116.5C22.6 114.9 26.2 113.4 30 112L35.3 110.2C36.4 109.9 37.4 109.5 38.4 109.3C38.5 109.5 38.5 109.7 38.6 110C38.8 110.6 38.9 111.2 39.1 111.7C39.3 112.3 39.5 113 39.7 113.6C39.9 114.1 40.1 114.7 40.3 115.2C40.5 115.8 40.8 116.4 41 116.9C41.2 117.4 41.4 117.9 41.6 118.3C41.8 118.8 42.1 119.4 42.4 119.9C42.6 120.3 42.9 120.8 43.1 121.2C43.4 121.7 43.6 122.1 43.9 122.6C44.1 123 44.4 123.4 44.6 123.7C44.9 124.1 45.2 124.5 45.4 124.9C45.6 125.2 45.9 125.6 46.1 125.9C46.4 126.3 46.7 126.6 46.9 127C47.1 127.3 47.4 127.6 47.6 127.9C47.9 128.2 48.2 128.5 48.4 128.8C48.6 129.1 48.9 129.3 49.1 129.6C49.4 129.9 49.6 130.1 49.9 130.4C50.1 130.6 50.4 130.8 50.6 131.1C50.9 131.3 51.1 131.6 51.4 131.8C51.6 132 51.8 132.2 52.1 132.3C52.4 132.5 52.6 132.7 52.8 132.9C53 133.1 53.2 133.2 53.4 133.3C53.6 133.5 53.8 133.6 54.1 133.7C54.3 133.8 54.5 133.9 54.6 134.1C54.8 134.2 55 134.3 55.2 134.4C55.3 134.5 55.5 134.6 55.6 134.7C55.8 134.8 55.9 134.9 56.1 135C56.2 135 56.3 135.1 56.4 135.2C56.6 135.3 56.7 135.3 56.8 135.4L56.9 135.5C57 135.6 57.1 135.6 57.2 135.6C58.1 136 59.2 135.8 60 135.2L71.8 125V130.4C72.3 130.3 72.8 130.2 73.3 130.2C74.1 129.4 75.2 128.9 76.7 128.9C76.8 128.9 76.9 128.9 77.1 128.9V125L89.2 135C89.4 135.2 89.7 135.3 89.9 135.4C90 135.4 90.1 135.5 90.1 135.5C90.3 135.6 90.5 135.6 90.7 135.6C90.8 135.6 90.8 135.6 90.9 135.6H91C91.3 135.6 91.6 135.5 91.9 135.4C91.9 135.4 92 135.3 92.2 135.3C92.2 135.3 92.3 135.3 92.3 135.2C92.4 135.1 92.5 135.1 92.7 135C92.8 135 92.9 134.9 93 134.8C93.2 134.7 93.3 134.6 93.5 134.5C93.6 134.4 93.8 134.3 93.9 134.2C94.1 134.1 94.3 134 94.5 133.9C94.7 133.8 94.8 133.7 95 133.5C95.2 133.4 95.4 133.2 95.7 133.1C95.9 133 96.1 132.8 96.3 132.7C96.5 132.5 96.8 132.3 97 132.1C97.2 131.9 97.4 131.7 97.7 131.6C98 131.4 98.2 131.2 98.5 130.9C98.7 130.7 99 130.5 99.2 130.2C99.5 129.9 99.7 129.7 100 129.4C100.2 129.2 100.5 128.9 100.7 128.6C101 128.3 101.3 128 101.5 127.7C101.7 127.4 102 127.1 102.2 126.8C102.5 126.4 102.8 126.1 103 125.7C103.2 125.4 103.5 125 103.7 124.7C104 124.3 104.3 123.9 104.5 123.5C104.7 123.1 105 122.7 105.2 122.4C105.5 121.9 105.7 121.5 106 121C106.2 120.6 106.5 120.2 106.7 119.7C107 119.2 107.2 118.7 107.5 118.1C107.7 117.6 108 117 108.2 116.5C108.3 116.2 108.4 115.7 108.5 115.4C108.6 114.9 108.9 114.4 109.2 113.9C109.5 113.1 109.7 112.3 110 111.5C110.2 110.7 110.5 110 110.7 109.1C111.7 109.4 112.7 109.7 113.8 110C113.8 110 119.2 111.8 119.1 111.8C119.1 111.8 119.1 111.8 119.2 111.8C123 113.2 126.7 114.7 130 116.3C139.3 120.8 144.1 124.8 144.1 133.8V151.8H144.3Z" fill="white"/>
<path d="M75.1 135.6L70.2 129.8L68.6 127.9L72.1 124.8L74.5 122.5L77.4 124.8L80.9 127.9L79.4 129.8L75.1 135.6Z" fill="#E00106"/>
<path d="M75.1 173.9L69.8 167.2L64 160.1L75.1 134.7L85.8 160.1L80.5 167.2L75.1 173.9Z" fill="#E00106"/>
</g>
<defs>
<clipPath id="clip0">
<rect width="149.6" height="174.3" fill="white"/>
</clipPath>
</defs>
</svg>
